                                              Release Notes: 


[url=http://imgboot.com/image/edman74/tangledy.jpg][img]http://imgboot.com/images/edman74/tangledy.jpg[/img][/url]
 


IMDb URL..........:http://www.imdb.com/title/tt0398286/



[color=red]DETAILS:[/color]

General
Complete name                    : Tangled TC Line Audio Xvid-Chaos.avi
Format                           : AVI
Format/Info                      : Audio Video Interleave
File size                        : 993 MiB
Duration                         : 1h 30mn
Overall bit rate                 : 1 531 Kbps
Writing application              : My Secret

Video
ID                               : 0
Format                           : MPEG-4 Visual
Format profile                   : Advanced Simple@L5
Format settings, BVOP            : Yes
Format settings, QPel            : No
Format settings, GMC             : No warppoints
Format settings, Matrix          : Default (H.263)
Muxing mode                      : Packed bitstream
Codec ID                         : XVID
Codec ID/Hint                    : XviD
Duration                         : 1h 30mn
Bit rate                         : 1 386 Kbps
Width                            : 720 pixels
Height                           : 384 pixels
Display aspect ratio             : 1.875
Frame rate                       : 24.960 fps
Original frame rate              : 25.000 fps
Color space                      : YUV
Chroma subsampling               : 4:2:0
Bit depth                        : 8 bits
Scan type                        : Progressive
Bits/(Pixel*Frame)               : 0.201
Stream size                      : 900 MiB (91%)
Writing library                  : XviD 1.2.1 (UTC 2008-12-04)

Audio
ID                               : 1
Format                           : MPEG Audio
Format version                   : Version 1
Format profile                   : Layer 3
Mode                             : Joint stereo
Mode extension                   : MS Stereo
Codec ID                         : 55
Codec ID/Hint                    : MP3
Duration                         : 1h 30mn
Bit rate mode                    : Constant
Bit rate                         : 128 Kbps
Channel(s)                       : 2 channels
Sampling rate                    : 44.1 KHz
Stream size                      : 83.0 MiB (8%)
Alignment                        : Split accross interleaves
Interleave, duration             : 26 ms (0.65 video frame)
Writing library                  : LAME3.97






[color=red]SOURCES:[/color]

Video: IMAGiNE....thanks guys
Audio: iNK's tweaked Line Audio.... thanks bro

[color=red]NOTES:[/color]

i did the usual ran it thru an RGB eq. adjusted brightness, gamma, hue, saturation and sharpened it...
then i had to synch iNK's tweaked Line Audio to it..


[color=red]SCREENS:[/color] 

[url=http://imgboot.com/image/edman74/vlcsnap2011011023h11m07s70.png][img]http://imgboot.com/images/edman74/vlcsnap2011011023h11m07s70.png[/img][/url]
[url=http://imgboot.com/image/edman74/vlcsnap2011011023h11m13s141.png][img]http://imgboot.com/images/edman74/vlcsnap2011011023h11m13s141.png[/img][/url]
[url=http://imgboot.com/image/edman74/vlcsnap2011011023h11m34s98.png][img]http://imgboot.com/images/edman74/vlcsnap2011011023h11m34s98.png[/img][/url]
[url=http://imgboot.com/image/edman74/vlcsnap2011011023h11m46s203.png][img]http://imgboot.com/images/edman74/vlcsnap2011011023h11m46s203.png[/img][/url]


[color=red]Trackers:[/color]
 
http://exodus.1337x.org/announce
 
http://tracker.publicbt.com:80/announce
 
http://pow7.com/announce

 
http://genesis.1337x.org:1337/announce



[color=red]Scanned with:[/color] KIS 2011.....Clean